<svg xmlns="http://www.w3.org/2000/svg" xmlns:xlink="http://www.w3.org/1999/xlink" width="127.001" height="127.001" viewBox="0 0 127.001 127.001">
  <defs>
    <filter id="Oval" x="0" y="0" width="127.001" height="127.001" filterUnits="userSpaceOnUse">
      <feOffset dy="3" input="SourceAlpha"/>
      <feGaussianBlur stdDeviation="3" result="blur"/>
      <feFlood flood-opacity="0.161"/>
      <feComposite operator="in" in2="blur"/>
      <feComposite in="SourceGraphic"/>
    </filter>
  </defs>
  <g id="Flickr" transform="translate(9 6)">
    <g transform="matrix(1, 0, 0, 1, -9, -6)" filter="url(#Oval)">
      <ellipse id="Oval-2" data-name="Oval" cx="54.501" cy="54.501" rx="54.501" ry="54.501" transform="translate(9 6)" fill="#ff0680"/>
    </g>
    <path id="Flickr-2" data-name="Flickr" d="M36.334,44.719H8.385A8.108,8.108,0,0,1,2.46,42.258,8.11,8.11,0,0,1,0,36.334V8.385A8.111,8.111,0,0,1,2.46,2.46,8.111,8.111,0,0,1,8.385,0H36.334a8.111,8.111,0,0,1,5.925,2.46,8.121,8.121,0,0,1,2.46,5.925V36.334a8.4,8.4,0,0,1-8.385,8.385ZM30.569,16.187A6.162,6.162,0,0,0,24.4,22.36a6.176,6.176,0,0,0,10.54,4.367,6.187,6.187,0,0,0,0-8.735A5.979,5.979,0,0,0,30.569,16.187Zm-16.419,0A6.162,6.162,0,0,0,7.978,22.36a6.162,6.162,0,0,0,6.172,6.172,6.162,6.162,0,0,0,6.172-6.172,6.162,6.162,0,0,0-6.172-6.173Z" transform="translate(32.141 32.141)" fill="#fff"/>
  </g>
</svg>
