<?xml version="1.0" encoding="UTF-8" standalone="no"?><!DOCTYPE svg PUBLIC "-//W3C//DTD SVG 1.1//EN" "http://www.w3.org/Graphics/SVG/1.1/DTD/svg11.dtd"><svg width="100%" height="100%" viewBox="0 0 24 24" version="1.1" xmlns="http://www.w3.org/2000/svg" xmlns:xlink="http://www.w3.org/1999/xlink" xml:space="preserve" xmlns:serif="http://www.serif.com/" style="fill-rule:evenodd;clip-rule:evenodd;stroke-linejoin:round;stroke-miterlimit:2;"><g id="Symbol"><g><path d="M6.106,3.474c-0.593,0.23 -1.094,0.538 -1.595,1.039c-0.501,0.497 -0.809,1.002 -1.039,1.591c-0.223,0.571 -0.373,1.226 -0.417,2.184c-0.044,0.959 -0.055,1.266 -0.055,3.71c0,2.444 0.011,2.751 0.055,3.71c0.044,0.958 0.197,1.613 0.417,2.184c0.23,0.593 0.538,1.094 1.039,1.595c0.501,0.501 1.002,0.809 1.595,1.039c0.571,0.223 1.226,0.373 2.184,0.417c0.959,0.044 1.266,0.055 3.71,0.055c2.444,0 2.751,-0.011 3.71,-0.055c0.958,-0.044 1.613,-0.197 2.184,-0.417c0.593,-0.23 1.094,-0.538 1.595,-1.039c0.501,-0.501 0.809,-1.002 1.039,-1.595c0.223,-0.571 0.373,-1.226 0.417,-2.184c0.044,-0.959 0.055,-1.266 0.055,-3.71c-0,-2.444 -0.011,-2.751 -0.055,-3.71c-0.044,-0.958 -0.197,-1.613 -0.417,-2.184c-0.23,-0.589 -0.538,-1.094 -1.035,-1.591c-0.502,-0.501 -1.003,-0.809 -1.595,-1.039c-0.571,-0.223 -1.226,-0.373 -2.185,-0.417c-0.958,-0.044 -1.265,-0.055 -3.709,-0.055c-2.444,-0 -2.752,0.011 -3.71,0.055c-0.962,0.04 -1.617,0.194 -2.188,0.417Zm9.531,1.2c0.878,0.04 1.353,0.186 1.672,0.311c0.42,0.164 0.72,0.358 1.035,0.673c0.315,0.315 0.508,0.615 0.673,1.035c0.124,0.319 0.271,0.794 0.311,1.672c0.044,0.948 0.051,1.233 0.051,3.637c0,2.403 -0.011,2.689 -0.051,3.636c-0.04,0.878 -0.187,1.354 -0.311,1.672c-0.165,0.421 -0.358,0.721 -0.673,1.036c-0.315,0.314 -0.615,0.508 -1.035,0.673c-0.319,0.124 -0.794,0.271 -1.672,0.311c-0.948,0.044 -1.233,0.051 -3.637,0.051c-2.404,0 -2.689,-0.011 -3.637,-0.051c-0.878,-0.04 -1.353,-0.187 -1.672,-0.311c-0.42,-0.165 -0.72,-0.359 -1.035,-0.673c-0.315,-0.315 -0.508,-0.615 -0.673,-1.036c-0.124,-0.318 -0.271,-0.794 -0.311,-1.672c-0.044,-0.947 -0.051,-1.233 -0.051,-3.636c-0,-2.404 0.011,-2.689 0.051,-3.637c0.04,-0.878 0.187,-1.353 0.311,-1.672c0.165,-0.42 0.358,-0.72 0.673,-1.035c0.315,-0.315 0.615,-0.509 1.035,-0.673c0.319,-0.125 0.794,-0.271 1.672,-0.311c0.948,-0.044 1.233,-0.051 3.637,-0.051c2.404,-0 2.689,0.007 3.637,0.051Z" style="fill:#fff;fill-rule:nonzero;"/><path d="M7.379,12.002c0,2.553 2.071,4.621 4.621,4.621c2.55,-0 4.621,-2.071 4.621,-4.621c-0,-2.55 -2.067,-4.621 -4.621,-4.621c-2.554,0 -4.621,2.067 -4.621,4.621Zm7.621,-0c0,1.657 -1.343,3 -3,3c-1.657,-0 -3,-1.343 -3,-3c0,-1.657 1.343,-3 3,-3c1.657,-0 3,1.343 3,3Z" style="fill:#fff;fill-rule:nonzero;"/><circle cx="16.807" cy="7.198" r="1.079" style="fill:#fff;"/></g></g></svg>