<?xml version="1.0" encoding="UTF-8" standalone="no"?><!DOCTYPE svg PUBLIC "-//W3C//DTD SVG 1.1//EN" "http://www.w3.org/Graphics/SVG/1.1/DTD/svg11.dtd"><svg width="100%" height="100%" viewBox="0 0 24 24" version="1.1" xmlns="http://www.w3.org/2000/svg" xmlns:xlink="http://www.w3.org/1999/xlink" xml:space="preserve" xmlns:serif="http://www.serif.com/" style="fill-rule:evenodd;clip-rule:evenodd;stroke-linejoin:round;stroke-miterlimit:2;"><path d="M21.552,7.199c-0.23,-0.857 -0.909,-1.536 -1.766,-1.766c-1.152,-0.448 -12.363,-0.666 -15.614,0.013c-0.857,0.23 -1.535,0.908 -1.766,1.766c-0.524,2.291 -0.563,7.243 0.013,9.585c0.231,0.858 0.909,1.536 1.766,1.767c2.291,0.524 13.182,0.601 15.614,-0c0.857,-0.231 1.535,-0.909 1.766,-1.767c0.563,-2.495 0.601,-7.141 -0.013,-9.598Zm-11.492,7.794l-0,-5.989l5.221,2.994l-5.221,2.995Z" style="fill:#fff;fill-rule:nonzero;"/></svg>