<?xml version="1.0" encoding="UTF-8" standalone="no"?>
<!DOCTYPE svg PUBLIC "-//W3C//DTD SVG 1.1//EN" "http://www.w3.org/Graphics/SVG/1.1/DTD/svg11.dtd">
<svg width="48" height="48" viewBox="0 0 48 48" version="1.1" xmlns="http://www.w3.org/2000/svg" xmlns:xlink="http://www.w3.org/1999/xlink" xml:space="preserve" xmlns:serif="http://www.serif.com/" style="fill-rule:evenodd;clip-rule:evenodd;stroke-linejoin:round;stroke-miterlimit:2;">
    <g transform="matrix(1.08189,0,0,1.08189,-1.96271,-1.94741)">
        <g>
            <path d="M23.967,1.8C11.7,1.8 1.767,11.733 1.767,24C1.767,33.4 7.6,41.433 15.867,44.667C15.667,42.9 15.5,40.233 15.933,38.3C16.333,36.567 18.533,27.267 18.533,27.267C18.533,27.267 17.867,25.933 17.867,23.967C17.867,20.867 19.667,18.567 21.867,18.567C23.767,18.567 24.667,20 24.667,21.7C24.667,23.6 23.467,26.467 22.833,29.1C22.3,31.3 23.933,33.1 26.133,33.1C30.067,33.1 33.1,28.933 33.1,22.933C33.1,17.633 29.267,13.9 23.833,13.9C17.533,13.9 13.8,18.633 13.8,23.533C13.8,25.433 14.533,27.5 15.467,28.6C15.633,28.833 15.667,29 15.633,29.233C15.467,29.933 15.1,31.433 15.033,31.733C14.933,32.133 14.7,32.233 14.3,32.033C11.533,30.733 9.8,26.7 9.8,23.433C9.8,16.433 14.9,10 24.467,10C32.167,10 38.133,15.5 38.133,22.8C38.133,30.433 33.3,36.6 26.633,36.6C24.4,36.6 22.267,35.433 21.533,34.067C21.533,34.067 20.433,38.3 20.167,39.333C19.667,41.267 18.3,43.667 17.4,45.167C19.467,45.8 21.667,46.167 23.967,46.167C36.233,46.167 46.167,36.233 46.167,23.967C46.167,11.733 36.233,1.8 23.967,1.8Z" style="fill:white;fill-rule:nonzero;"/>
        </g>
    </g>
</svg>
