<?xml version="1.0" encoding="UTF-8" standalone="no"?>
<!DOCTYPE svg PUBLIC "-//W3C//DTD SVG 1.1//EN" "http://www.w3.org/Graphics/SVG/1.1/DTD/svg11.dtd">
<svg width="100%" height="100%" viewBox="0 0 24 24" version="1.1" xmlns="http://www.w3.org/2000/svg" xmlns:xlink="http://www.w3.org/1999/xlink" xml:space="preserve" xmlns:serif="http://www.serif.com/" style="fill-rule:evenodd;clip-rule:evenodd;stroke-linejoin:round;stroke-miterlimit:2;">
    <g transform="matrix(0.0540217,0,0,0.0540217,-2.58587,-2.58587)">
        <g>
            <g transform="matrix(0.685595,0,0,0.685595,84.8893,84.8893)">
                <path d="M334.286,173.5L385.714,203.192L334.286,232.885L282.857,203.192L334.286,173.5Z" style="fill:white;fill-rule:nonzero;"/>
            </g>
            <g transform="matrix(0.685595,0,0,0.685595,84.8893,84.8893)">
                <path d="M385.714,292.269L231.429,203.192L308.571,158.654L257.143,128.962L128.627,203.161L334.286,321.962L385.714,292.269Z" style="fill:white;fill-rule:nonzero;"/>
            </g>
            <g transform="matrix(0.685595,0,0,0.685595,84.8893,84.8893)">
                <path d="M0,218.038L51.429,188.346L334.286,351.654L437.143,292.269L360,247.731L411.429,218.038L540,292.269L334.286,411.038L0,218.038Z" style="fill:white;fill-rule:nonzero;"/>
            </g>
        </g>
    </g>
</svg>
