<?xml version="1.0" encoding="UTF-8"?>
<svg id="Layer_1" data-name="Layer 1" xmlns="http://www.w3.org/2000/svg" xmlns:xlink="http://www.w3.org/1999/xlink" viewBox="0 0 1024 1024">
  <defs>
    <style>
      .cls-1 {
        fill: url(#linear-gradient);
      }

      .cls-1, .cls-2 {
        stroke-width: 0px;
      }

      .cls-2 {
        fill: #fff;
      }
    </style>
    <linearGradient id="linear-gradient" x1="123.98" y1="900.02" x2="900.02" y2="123.98" gradientUnits="userSpaceOnUse">
      <stop offset="0" stop-color="#febc22"/>
      <stop offset=".25" stop-color="#fa6317"/>
      <stop offset=".45" stop-color="#f20011"/>
      <stop offset=".67" stop-color="#df0040"/>
      <stop offset="1" stop-color="#bf009d"/>
    </linearGradient>
  </defs>
  <path class="cls-1" d="m60.5,493.94c0-204.33,0-306.49,63.48-369.96s165.64-63.48,369.96-63.48h36.12c204.33,0,306.49,0,369.96,63.48,63.48,63.48,63.48,165.64,63.48,369.96v36.12c0,204.33,0,306.49-63.48,369.96-63.48,63.48-165.64,63.48-369.96,63.48h-36.12c-204.33,0-306.49,0-369.96-63.48-63.48-63.48-63.48-165.64-63.48-369.96v-36.12Z"/>
  <g>
    <path class="cls-2" d="m512,322.54c61.71,0,69.02.24,93.38,1.35,22.53,1.03,34.77,4.79,42.91,7.96,10.79,4.19,18.49,9.2,26.57,17.29,8.09,8.09,13.1,15.79,17.29,26.57,3.16,8.14,6.93,20.38,7.96,42.91,1.11,24.37,1.35,31.68,1.35,93.38s-.24,69.02-1.35,93.38c-1.03,22.53-4.79,34.77-7.96,42.91-4.19,10.79-9.2,18.49-17.29,26.57-8.09,8.09-15.79,13.1-26.57,17.29-8.14,3.16-20.38,6.93-42.91,7.96-24.37,1.11-31.67,1.35-93.38,1.35s-69.02-.24-93.38-1.35c-22.53-1.03-34.77-4.79-42.91-7.96-10.79-4.19-18.49-9.2-26.57-17.29-8.09-8.09-13.1-15.79-17.29-26.57-3.16-8.14-6.93-20.38-7.96-42.91-1.11-24.37-1.35-31.68-1.35-93.38s.24-69.02,1.35-93.38c1.03-22.53,4.79-34.77,7.96-42.91,4.19-10.79,9.2-18.49,17.29-26.57,8.09-8.09,15.79-13.1,26.57-17.29,8.14-3.16,20.38-6.93,42.91-7.96,24.37-1.11,31.68-1.35,93.38-1.35m0-41.64c-62.76,0-70.63.27-95.28,1.39-24.6,1.12-41.4,5.03-56.1,10.74-15.2,5.91-28.08,13.81-40.93,26.66-12.85,12.85-20.75,25.74-26.66,40.93-5.71,14.7-9.62,31.5-10.74,56.1-1.12,24.65-1.39,32.52-1.39,95.28s.27,70.63,1.39,95.28c1.12,24.6,5.03,41.4,10.74,56.1,5.91,15.2,13.81,28.08,26.66,40.93,12.85,12.85,25.74,20.75,40.93,26.66,14.7,5.71,31.5,9.62,56.1,10.74,24.65,1.12,32.52,1.39,95.28,1.39s70.63-.27,95.28-1.39c24.6-1.12,41.4-5.03,56.1-10.74,15.2-5.91,28.08-13.81,40.93-26.66,12.85-12.85,20.75-25.74,26.66-40.93,5.71-14.7,9.62-31.5,10.74-56.1,1.12-24.65,1.39-32.52,1.39-95.28s-.27-70.63-1.39-95.28c-1.12-24.6-5.03-41.4-10.74-56.1-5.91-15.2-13.81-28.08-26.66-40.93-12.85-12.85-25.74-20.75-40.93-26.66-14.7-5.71-31.5-9.62-56.1-10.74-24.65-1.12-32.52-1.39-95.28-1.39h0Z"/>
    <path class="cls-2" d="m512,393.33c-65.54,0-118.67,53.13-118.67,118.67s53.13,118.67,118.67,118.67,118.67-53.13,118.67-118.67-53.13-118.67-118.67-118.67Zm0,195.71c-42.54,0-77.03-34.49-77.03-77.03s34.49-77.03,77.03-77.03,77.03,34.49,77.03,77.03-34.49,77.03-77.03,77.03Z"/>
    <circle class="cls-2" cx="635.36" cy="388.64" r="27.73"/>
  </g>
</svg>