<?xml version="1.0" encoding="UTF-8"?>
<svg id="Layer_1" data-name="Layer 1" xmlns="http://www.w3.org/2000/svg" viewBox="0 0 1024 1024">
  <defs>
    <style>
      .cls-1 {
        fill: #fff;
      }

      .cls-1, .cls-2 {
        stroke-width: 0px;
      }

      .cls-2 {
        fill: #0a66c2;
      }
    </style>
  </defs>
  <path class="cls-2" d="m60.5,493.94c0-204.33,0-306.49,63.48-369.96s165.64-63.48,369.96-63.48h36.12c204.33,0,306.49,0,369.96,63.48,63.48,63.48,63.48,165.64,63.48,369.96v36.12c0,204.33,0,306.49-63.48,369.96-63.48,63.48-165.64,63.48-369.96,63.48h-36.12c-204.33,0-306.49,0-369.96-63.48-63.48-63.48-63.48-165.64-63.48-369.96v-36.12Z"/>
  <path class="cls-1" d="m724.96,262.01v.03h-426.07c-20-.23-36.65,16.04-36.89,36.04v427.84c.23,20.01,16.88,36.29,36.89,36.08h426.07c20.06.25,36.77-16.03,37.04-36.08v-427.87c-.27-20.04-17-36.3-37.04-36.04Zm-314.68,426.03h-74.16v-238.6h74.16v238.6Zm5.94-314.2c0,23.58-19.4,42.99-42.98,42.99h0c-23.59,0-42.99-19.41-42.99-42.99s19.41-42.99,42.99-42.99,42.99,19.4,42.99,42.98h0Zm271.8,314.2h-74.09v-116.02c0-27.67-.49-63.28-38.53-63.28s-44.49,30.14-44.49,61.27v118.03h-74.08v-238.59h71.12v32.6h1c14.48-24.76,41.51-39.6,70.17-38.54,75.09,0,88.93,49.39,88.93,113.64l-.03,130.89Z"/>
</svg>