<?xml version="1.0" encoding="UTF-8"?>
<svg id="Layer_1" data-name="Layer 1" xmlns="http://www.w3.org/2000/svg" xmlns:xlink="http://www.w3.org/1999/xlink" viewBox="0 0 1024 1024">
  <defs>
    <style>
      .cls-1 {
        fill: url(#linear-gradient);
      }

      .cls-1, .cls-2 {
        stroke-width: 0px;
      }

      .cls-2 {
        fill: #fff;
      }
    </style>
    <linearGradient id="linear-gradient" x1="512" y1="963.5" x2="512" y2="60.5" gradientUnits="userSpaceOnUse">
      <stop offset="0" stop-color="#229ed9"/>
      <stop offset="1" stop-color="#2aabee"/>
    </linearGradient>
  </defs>
  <path class="cls-1" d="m60.5,493.94c0-204.33,0-306.49,63.48-369.96,63.48-63.48,165.64-63.48,369.96-63.48h36.12c204.33,0,306.49,0,369.96,63.48,63.48,63.48,63.48,165.64,63.48,369.96v36.12c0,204.33,0,306.49-63.48,369.96-63.48,63.48-165.64,63.48-369.96,63.48h-36.12c-204.33,0-306.49,0-369.96-63.48-63.48-63.48-63.48-165.64-63.48-369.96v-36.12Z"/>
  <path id="Path-3" class="cls-2" d="m296.37,483.2c134.22-58.48,223.72-97.03,268.5-115.65,127.86-53.18,154.43-62.42,171.74-62.72,3.81-.07,12.32.88,17.84,5.35,4.66,3.78,5.94,8.88,6.55,12.47.61,3.58,1.38,11.75.77,18.12-6.93,72.8-36.91,249.47-52.16,331.01-6.45,34.5-19.16,46.07-31.46,47.2-26.74,2.46-47.04-17.67-72.93-34.64-40.52-26.56-63.41-43.1-102.75-69.02-45.46-29.96-15.99-46.42,9.92-73.33,6.78-7.04,124.58-114.19,126.86-123.91.29-1.22.55-5.75-2.14-8.14-2.69-2.39-6.67-1.57-9.53-.92-4.06.92-68.8,43.71-194.2,128.36-18.37,12.62-35.02,18.76-49.93,18.44-16.44-.36-48.06-9.29-71.57-16.94-28.83-9.37-51.75-14.33-49.75-30.25,1.04-8.29,12.46-16.77,34.25-25.44Z"/>
</svg>